<svg width="158" height="44" viewBox="0 0 158 44" fill="none" xmlns="http://www.w3.org/2000/svg">
<path fill-rule="evenodd" clip-rule="evenodd" d="M22 44C34.1503 44 44 34.1503 44 22C44 9.84974 34.1503 0 22 0C9.84974 0 0 9.84974 0 22C0 34.1503 9.84974 44 22 44ZM23.5301 29.4912C23.6313 29.5916 23.7615 29.6418 23.9205 29.6418H26.1548C26.2994 29.6418 26.4224 29.5916 26.5236 29.4912C26.6248 29.3907 26.6754 29.2615 26.6754 29.1037V24.2818C27.0225 24.741 27.4636 25.107 27.9987 25.3796C28.5482 25.6379 29.1917 25.7671 29.9293 25.7671C30.6813 25.7671 31.3321 25.6451 31.8816 25.4011C32.4456 25.1572 32.9228 24.8128 33.3133 24.3679C33.7037 23.923 34.0002 23.392 34.2027 22.7749C34.4196 22.1578 34.5353 21.4833 34.5497 20.7515C34.5642 20.4644 34.5714 20.1989 34.5714 19.955C34.5714 19.711 34.5642 19.4527 34.5497 19.18C34.5208 18.4051 34.3979 17.7091 34.181 17.092C33.9785 16.4749 33.682 15.9511 33.2916 15.5205C32.9156 15.0757 32.4456 14.7384 31.8816 14.5088C31.3321 14.2648 30.6813 14.1429 29.9293 14.1429C29.105 14.1429 28.4181 14.2935 27.8685 14.5949C27.319 14.8819 26.8707 15.2551 26.5236 15.7143V14.8963C26.5236 14.7384 26.473 14.6093 26.3718 14.5088C26.2705 14.4083 26.1404 14.3581 25.9813 14.3581H23.9205C23.7615 14.3581 23.6313 14.4083 23.5301 14.5088C23.4288 14.6093 23.3782 14.7384 23.3782 14.8963V29.1037C23.3782 29.2615 23.4288 29.3907 23.5301 29.4912ZM30.2547 22.8395C29.9365 23.0691 29.5027 23.1839 28.9531 23.1839C28.4325 23.1839 28.0059 23.0691 27.6733 22.8395C27.3551 22.6099 27.1093 22.3229 26.9358 21.9785C26.7767 21.6197 26.6899 21.2394 26.6754 20.8376C26.661 20.5649 26.6538 20.2922 26.6538 20.0196C26.6538 19.7469 26.661 19.4814 26.6754 19.2231C26.7044 18.7926 26.7911 18.3907 26.9358 18.0176C27.0804 17.6445 27.319 17.3359 27.6516 17.092C27.9842 16.848 28.4181 16.726 28.9531 16.726C29.5027 16.726 29.9365 16.848 30.2547 17.092C30.5728 17.3216 30.797 17.6301 30.9271 18.0176C31.0717 18.4051 31.1585 18.8284 31.1874 19.2877C31.2164 19.7325 31.2164 20.1774 31.1874 20.6223C31.1585 21.0815 31.0717 21.5049 30.9271 21.8923C30.797 22.2798 30.5728 22.5955 30.2547 22.8395ZM12.1401 29.5127C12.7041 29.7423 13.3476 29.8571 14.0707 29.8571C14.895 29.8571 15.5819 29.7208 16.1315 29.4481C16.681 29.1611 17.1366 28.8023 17.4981 28.3718V29.1037C17.4981 29.2616 17.5487 29.3907 17.6499 29.4912C17.7512 29.5917 17.8741 29.6419 18.0187 29.6419H20.1012C20.2458 29.6419 20.3687 29.5917 20.4699 29.4912C20.5712 29.3907 20.6218 29.2616 20.6218 29.1037V14.8963C20.6218 14.7385 20.5712 14.6093 20.4699 14.5088C20.3687 14.4084 20.2458 14.3582 20.1012 14.3582H17.8669C17.7078 14.3582 17.5776 14.4084 17.4764 14.5088C17.3752 14.6093 17.3246 14.7385 17.3246 14.8963V19.5891C16.9775 19.1872 16.5364 18.8643 16.0013 18.6204C15.4663 18.3621 14.8227 18.2329 14.0707 18.2329C13.3476 18.2329 12.6969 18.3621 12.1184 18.6204C11.5544 18.8643 11.0772 19.2159 10.6867 19.6752C10.3107 20.12 10.0143 20.651 9.79734 21.2681C9.59488 21.8852 9.47919 22.5669 9.45026 23.3131C9.4358 23.5714 9.42857 23.8154 9.42857 24.045C9.42857 24.2603 9.4358 24.5043 9.45026 24.7769C9.49365 25.5375 9.61657 26.2335 9.81903 26.865C10.0215 27.4821 10.318 28.0202 10.7084 28.4795C11.0989 28.9243 11.5761 29.2688 12.1401 29.5127ZM16.3484 26.908C16.0303 27.152 15.6036 27.274 15.0686 27.274C14.519 27.274 14.0852 27.1592 13.767 26.9296C13.4489 26.6856 13.2175 26.3699 13.0729 25.9824C12.9427 25.5949 12.8632 25.1716 12.8343 24.7123C12.7909 24.2675 12.7909 23.8226 12.8343 23.3777C12.8632 22.9185 12.9427 22.4951 13.0729 22.1076C13.2175 21.7202 13.4489 21.4116 13.767 21.182C14.0852 20.938 14.519 20.8161 15.0686 20.8161C15.5892 20.8161 16.0086 20.9309 16.3267 21.1605C16.6593 21.3901 16.9052 21.6843 17.0642 22.0431C17.2233 22.3875 17.3101 22.7606 17.3246 23.1624C17.3535 23.4208 17.3679 23.6862 17.3679 23.9589C17.3679 24.2316 17.3535 24.5043 17.3246 24.7769C17.3101 25.2074 17.2233 25.6093 17.0642 25.9824C16.9196 26.3555 16.681 26.6641 16.3484 26.908Z" fill="#0C1319"/>
<path d="M58.809 30.2908C57.9374 30.2908 57.1664 30.1484 56.4959 29.8634C55.8422 29.5617 55.2974 29.1427 54.8616 28.6063C54.4258 28.0699 54.0906 27.4413 53.8559 26.7206C53.6212 25.983 53.4871 25.1785 53.4536 24.3068C53.4368 24.0051 53.4285 23.7369 53.4285 23.5023C53.4285 23.2508 53.4368 22.9743 53.4536 22.6726C53.4871 21.8345 53.6128 21.055 53.8308 20.3343C54.0654 19.6135 54.4007 18.9849 54.8365 18.4486C55.289 17.8954 55.8422 17.468 56.4959 17.1663C57.1664 16.8646 57.9374 16.7137 58.809 16.7137C59.7142 16.7137 60.4768 16.8729 61.097 17.1914C61.734 17.4931 62.262 17.887 62.681 18.3731V12.7914C62.681 12.6238 62.7313 12.4813 62.8319 12.364C62.9492 12.2467 63.1001 12.188 63.2845 12.188H65.4216C65.5892 12.188 65.7317 12.2467 65.849 12.364C65.9664 12.4813 66.025 12.6238 66.025 12.7914V29.436C66.025 29.6036 65.9664 29.7461 65.849 29.8634C65.7317 29.9808 65.5892 30.0394 65.4216 30.0394H63.4353C63.2509 30.0394 63.1001 29.9808 62.9828 29.8634C62.8822 29.7461 62.8319 29.6036 62.8319 29.436V28.5057C62.4128 29.0253 61.8765 29.4528 61.2228 29.788C60.5858 30.1232 59.7812 30.2908 58.809 30.2908ZM59.7393 27.6006C60.4433 27.6006 61.0048 27.4413 61.4239 27.1228C61.8429 26.8044 62.153 26.4021 62.3542 25.916C62.5553 25.4131 62.6643 24.9019 62.681 24.3823C62.6978 24.0806 62.7062 23.7621 62.7062 23.4268C62.7062 23.0748 62.6978 22.748 62.681 22.4463C62.6643 21.9434 62.5469 21.4657 62.329 21.0131C62.1111 20.5438 61.7927 20.1583 61.3736 19.8566C60.9546 19.5548 60.4098 19.404 59.7393 19.404C59.0353 19.404 58.4738 19.5632 58.0548 19.8817C57.6525 20.1834 57.3591 20.5857 57.1748 21.0886C56.9904 21.5914 56.8814 22.1446 56.8479 22.748C56.8311 23.2508 56.8311 23.7537 56.8479 24.2566C56.8814 24.86 56.9904 25.4131 57.1748 25.916C57.3591 26.4188 57.6525 26.8295 58.0548 27.148C58.4738 27.4497 59.0353 27.6006 59.7393 27.6006Z" fill="#0C1319"/>
<path d="M70.2813 30.0394C70.1136 30.0394 69.9712 29.9808 69.8538 29.8634C69.7365 29.7461 69.6778 29.6036 69.6778 29.436V13.068C69.6778 12.8836 69.7365 12.7328 69.8538 12.6154C69.9712 12.4981 70.1136 12.4394 70.2813 12.4394H77.0195C78.327 12.4394 79.4668 12.6489 80.439 13.068C81.4112 13.4703 82.1654 14.0905 82.7018 14.9286C83.2382 15.7499 83.5064 16.7808 83.5064 18.0211C83.5064 19.2783 83.2382 20.3175 82.7018 21.1388C82.1654 21.9434 81.4112 22.5468 80.439 22.9491C79.4668 23.3514 78.327 23.5526 77.0195 23.5526H73.2733V29.436C73.2733 29.6036 73.2146 29.7461 73.0973 29.8634C72.9967 29.9808 72.8542 30.0394 72.6698 30.0394H70.2813ZM73.223 20.7617H76.8938C77.866 20.7617 78.6119 20.5354 79.1315 20.0828C79.6512 19.6135 79.911 18.9263 79.911 18.0211C79.911 17.183 79.6679 16.5126 79.1818 16.0097C78.6957 15.4901 77.9331 15.2303 76.8938 15.2303H73.223V20.7617Z" fill="#0C1319"/>
<path d="M86.5783 30.0394C86.4107 30.0394 86.2682 29.9808 86.1509 29.8634C86.0336 29.7461 85.9749 29.6036 85.9749 29.436V12.7914C85.9749 12.6238 86.0336 12.4813 86.1509 12.364C86.2682 12.2467 86.4107 12.188 86.5783 12.188H88.6652C88.8328 12.188 88.9753 12.2467 89.0926 12.364C89.21 12.4813 89.2686 12.6238 89.2686 12.7914V29.436C89.2686 29.6036 89.21 29.7461 89.0926 29.8634C88.9753 29.9808 88.8328 30.0394 88.6652 30.0394H86.5783Z" fill="#0C1319"/>
<path d="M96.4004 30.2908C95.5287 30.2908 94.7409 30.1232 94.0369 29.788C93.3329 29.436 92.7714 28.975 92.3524 28.4051C91.9501 27.8185 91.7489 27.1648 91.7489 26.444C91.7489 25.2707 92.2183 24.3404 93.1569 23.6531C94.1124 22.9491 95.3695 22.4798 96.9284 22.2451L100.373 21.7423V21.2143C100.373 20.5103 100.197 19.9655 99.8449 19.58C99.4929 19.1945 98.8895 19.0017 98.0346 19.0017C97.4312 19.0017 96.9367 19.1274 96.5512 19.3788C96.1825 19.6135 95.9059 19.932 95.7215 20.3343C95.5874 20.5522 95.3946 20.6611 95.1432 20.6611H93.1569C92.9725 20.6611 92.8301 20.6108 92.7295 20.5103C92.6457 20.4097 92.6038 20.2756 92.6038 20.108C92.6205 19.8398 92.7295 19.5129 92.9306 19.1274C93.1318 18.7419 93.4503 18.3731 93.8861 18.0211C94.3219 17.6524 94.8834 17.3423 95.5706 17.0908C96.2579 16.8394 97.0876 16.7137 98.0598 16.7137C99.1158 16.7137 100.004 16.8478 100.725 17.116C101.462 17.3674 102.049 17.711 102.485 18.1468C102.921 18.5827 103.239 19.0939 103.44 19.6806C103.641 20.2672 103.742 20.8874 103.742 21.5411V29.436C103.742 29.6036 103.683 29.7461 103.566 29.8634C103.449 29.9808 103.306 30.0394 103.139 30.0394H101.102C100.918 30.0394 100.767 29.9808 100.649 29.8634C100.549 29.7461 100.499 29.6036 100.499 29.436V28.4554C100.281 28.7739 99.9874 29.0756 99.6186 29.3606C99.2499 29.6288 98.7973 29.855 98.2609 30.0394C97.7413 30.207 97.1211 30.2908 96.4004 30.2908ZM97.2552 27.9023C97.8419 27.9023 98.3699 27.7766 98.8392 27.5251C99.3253 27.2737 99.7025 26.8882 99.9706 26.3686C100.256 25.8322 100.398 25.1617 100.398 24.3571V23.8291L97.8838 24.2314C96.8948 24.3823 96.1573 24.6253 95.6712 24.9606C95.1851 25.2958 94.9421 25.7065 94.9421 26.1926C94.9421 26.5613 95.051 26.8798 95.2689 27.148C95.5036 27.3994 95.7969 27.5922 96.1489 27.7263C96.5009 27.8436 96.8697 27.9023 97.2552 27.9023Z" fill="#0C1319"/>
<path d="M108.987 34.8166C108.853 34.8166 108.736 34.7663 108.635 34.6657C108.535 34.5651 108.484 34.4478 108.484 34.3137C108.484 34.2467 108.484 34.1796 108.484 34.1126C108.501 34.0623 108.535 33.9952 108.585 33.9114L110.546 29.26L105.719 17.8703C105.652 17.7027 105.618 17.5853 105.618 17.5183C105.635 17.3674 105.694 17.2417 105.794 17.1411C105.895 17.0238 106.02 16.9651 106.171 16.9651H108.208C108.409 16.9651 108.56 17.0154 108.66 17.116C108.761 17.2166 108.836 17.3255 108.887 17.4428L112.231 25.6646L115.675 17.4428C115.726 17.3088 115.801 17.1998 115.902 17.116C116.002 17.0154 116.153 16.9651 116.354 16.9651H118.366C118.5 16.9651 118.617 17.0154 118.718 17.116C118.835 17.2166 118.894 17.3339 118.894 17.468C118.894 17.5686 118.86 17.7027 118.793 17.8703L111.678 34.3388C111.611 34.4729 111.527 34.5819 111.426 34.6657C111.326 34.7663 111.175 34.8166 110.974 34.8166H108.987Z" fill="#0C1319"/>
<path d="M121.69 30.0394C121.522 30.0394 121.38 29.9808 121.263 29.8634C121.145 29.7461 121.087 29.6036 121.087 29.436V12.7914C121.087 12.6238 121.145 12.4813 121.263 12.364C121.38 12.2467 121.522 12.188 121.69 12.188H123.777C123.944 12.188 124.087 12.2467 124.204 12.364C124.322 12.4813 124.38 12.6238 124.38 12.7914V29.436C124.38 29.6036 124.322 29.7461 124.204 29.8634C124.087 29.9808 123.944 30.0394 123.777 30.0394H121.69Z" fill="#0C1319"/>
<path d="M128.859 30.0394C128.691 30.0394 128.549 29.9808 128.432 29.8634C128.314 29.7461 128.256 29.6036 128.256 29.436V17.5686C128.256 17.4009 128.314 17.2585 128.432 17.1411C128.549 17.0238 128.691 16.9651 128.859 16.9651H130.946C131.13 16.9651 131.273 17.0238 131.373 17.1411C131.491 17.2585 131.549 17.4009 131.549 17.5686V29.436C131.549 29.6036 131.491 29.7461 131.373 29.8634C131.273 29.9808 131.13 30.0394 130.946 30.0394H128.859ZM128.758 14.8028C128.574 14.8028 128.423 14.7526 128.306 14.652C128.205 14.5347 128.155 14.3838 128.155 14.1994V12.3891C128.155 12.2215 128.205 12.079 128.306 11.9617C128.423 11.8444 128.574 11.7857 128.758 11.7857H131.046C131.231 11.7857 131.382 11.8444 131.499 11.9617C131.616 12.079 131.675 12.2215 131.675 12.3891V14.1994C131.675 14.3838 131.616 14.5347 131.499 14.652C131.382 14.7526 131.231 14.8028 131.046 14.8028H128.758Z" fill="#0C1319"/>
<path d="M140.133 30.2908C139.127 30.2908 138.264 30.1735 137.543 29.9388C136.839 29.7042 136.261 29.4108 135.808 29.0588C135.356 28.7068 135.02 28.3548 134.803 28.0028C134.585 27.6508 134.467 27.3575 134.451 27.1228C134.434 26.9385 134.484 26.796 134.601 26.6954C134.735 26.5781 134.878 26.5194 135.029 26.5194H137.015C137.082 26.5194 137.141 26.5278 137.191 26.5446C137.241 26.5613 137.308 26.6116 137.392 26.6954C137.61 26.8798 137.836 27.0726 138.071 27.2737C138.323 27.4748 138.616 27.6508 138.951 27.8017C139.286 27.9358 139.705 28.0028 140.208 28.0028C140.862 28.0028 141.407 27.8771 141.843 27.6257C142.295 27.3575 142.521 26.9804 142.521 26.4943C142.521 26.1423 142.421 25.8573 142.22 25.6394C142.035 25.4215 141.683 25.2288 141.164 25.0611C140.644 24.8768 139.907 24.684 138.951 24.4828C138.012 24.2649 137.233 23.9884 136.613 23.6531C135.993 23.3179 135.532 22.8988 135.23 22.396C134.928 21.8931 134.777 21.3065 134.777 20.636C134.777 19.9823 134.97 19.3621 135.356 18.7754C135.758 18.172 136.345 17.6775 137.116 17.292C137.903 16.9065 138.876 16.7137 140.032 16.7137C140.937 16.7137 141.725 16.831 142.396 17.0657C143.066 17.2836 143.619 17.5602 144.055 17.8954C144.508 18.2307 144.851 18.5743 145.086 18.9263C145.321 19.2615 145.446 19.5548 145.463 19.8063C145.48 19.9907 145.43 20.1415 145.312 20.2588C145.195 20.3594 145.061 20.4097 144.91 20.4097H143.049C142.966 20.4097 142.89 20.3929 142.823 20.3594C142.756 20.3259 142.689 20.284 142.622 20.2337C142.438 20.0661 142.236 19.8901 142.019 19.7057C141.801 19.5213 141.532 19.3621 141.214 19.228C140.912 19.0771 140.51 19.0017 140.007 19.0017C139.37 19.0017 138.884 19.1442 138.549 19.4291C138.214 19.6973 138.046 20.0409 138.046 20.46C138.046 20.7449 138.121 20.9964 138.272 21.2143C138.44 21.4154 138.767 21.6082 139.253 21.7926C139.739 21.9769 140.476 22.1697 141.465 22.3708C142.588 22.572 143.477 22.8737 144.131 23.276C144.801 23.6615 145.27 24.1141 145.539 24.6337C145.823 25.1366 145.966 25.6981 145.966 26.3183C145.966 27.0726 145.74 27.7514 145.287 28.3548C144.851 28.9583 144.198 29.436 143.326 29.788C142.471 30.1232 141.407 30.2908 140.133 30.2908Z" fill="#0C1319"/>
<path d="M154.421 30.0394C153.415 30.0394 152.569 29.8634 151.881 29.5114C151.194 29.1594 150.683 28.6398 150.348 27.9526C150.012 27.2486 149.845 26.3769 149.845 25.3377V19.6303H147.859C147.691 19.6303 147.548 19.5716 147.431 19.4543C147.314 19.3369 147.255 19.1945 147.255 19.0268V17.5686C147.255 17.4009 147.314 17.2585 147.431 17.1411C147.548 17.0238 147.691 16.9651 147.859 16.9651H149.845V12.7914C149.845 12.6238 149.895 12.4813 149.996 12.364C150.113 12.2467 150.264 12.188 150.448 12.188H152.485C152.652 12.188 152.795 12.2467 152.912 12.364C153.03 12.4813 153.088 12.6238 153.088 12.7914V16.9651H156.231C156.399 16.9651 156.541 17.0238 156.659 17.1411C156.776 17.2585 156.835 17.4009 156.835 17.5686V19.0268C156.835 19.1945 156.776 19.3369 156.659 19.4543C156.541 19.5716 156.399 19.6303 156.231 19.6303H153.088V25.0863C153.088 25.7735 153.206 26.3099 153.44 26.6954C153.692 27.0809 154.119 27.2737 154.723 27.2737H156.457C156.625 27.2737 156.768 27.3324 156.885 27.4497C157.002 27.567 157.061 27.7095 157.061 27.8771V29.436C157.061 29.6036 157.002 29.7461 156.885 29.8634C156.768 29.9808 156.625 30.0394 156.457 30.0394H154.421Z" fill="#0C1319"/>
</svg>
